<svg width="1653" height="430" viewBox="0 0 1653 430" fill="none" xmlns="http://www.w3.org/2000/svg">
<path d="M560.17 2.75003C542.11 2.75003 521.03 17.48 513.17 35.58L440.17 204.07L438.42 208.07V320.43C438.428 328.996 441.835 337.208 447.893 343.264C453.951 349.32 462.164 352.725 470.73 352.73C471.072 352.759 471.39 352.916 471.622 353.169C471.854 353.421 471.983 353.752 471.983 354.095C471.983 354.438 471.854 354.769 471.622 355.022C471.39 355.274 471.072 355.431 470.73 355.46H362.44C362.098 355.431 361.78 355.274 361.548 355.022C361.316 354.769 361.187 354.438 361.187 354.095C361.187 353.752 361.316 353.421 361.548 353.169C361.78 352.916 362.098 352.759 362.44 352.73C371.006 352.725 379.219 349.32 385.277 343.264C391.335 337.208 394.742 328.996 394.75 320.43V208.08L320.02 35.6C312.17 17.5 291.08 2.76004 273.02 2.76004C272.659 2.76004 272.313 2.61677 272.058 2.36172C271.803 2.10667 271.66 1.76074 271.66 1.40005C271.66 1.03936 271.803 0.693429 272.058 0.43838C272.313 0.18333 272.659 0.0400032 273.02 0.0400032H385.02C385.381 0.0400032 385.727 0.18333 385.982 0.43838C386.237 0.693429 386.38 1.03936 386.38 1.40005C386.38 1.76074 386.237 2.10667 385.982 2.36172C385.727 2.61677 385.381 2.76004 385.02 2.76004C377.02 2.76004 370.73 5.69002 367.24 11C363.32 17 363.3 25.54 367.24 34.52L438.98 200.13L510.74 34.5301C514.62 25.5301 514.6 16.99 510.69 11.02C507.2 5.71004 500.88 2.78005 492.9 2.78005C492.539 2.78005 492.193 2.63673 491.938 2.38168C491.683 2.12663 491.54 1.7807 491.54 1.42001C491.54 1.05931 491.683 0.713388 491.938 0.458338C492.193 0.203289 492.539 0.0600227 492.9 0.0600227H560.23C560.591 0.0600227 560.937 0.203289 561.192 0.458338C561.447 0.713388 561.59 1.05931 561.59 1.42001C561.59 1.7807 561.447 2.12663 561.192 2.38168C560.937 2.63673 560.591 2.78005 560.23 2.78005M1123.17 177.78C1123.17 275.78 1043.44 355.51 945.44 355.51C902.955 355.538 861.878 340.274 829.72 312.51C797.565 340.274 756.492 355.537 714.01 355.51C616.01 355.51 536.28 275.78 536.28 177.78C536.28 79.7801 615.95 2.51624e-05 713.95 2.51624e-05C756.431 -0.0226201 797.503 15.2403 829.66 43C861.823 15.2435 902.896 -0.0187666 945.38 2.51624e-05C1043.38 2.51624e-05 1123.11 79.74 1123.11 177.74M812.74 295.9C783.701 263.402 767.65 221.347 767.65 177.765C767.65 134.183 783.701 92.1282 812.74 59.63C788.22 24.7 753.01 2.75003 713.95 2.75003C640.04 2.75003 579.95 81.26 579.95 177.75C579.95 274.24 640.08 352.75 713.95 352.75C753.01 352.75 788.22 330.75 812.74 295.87M847.98 177.74C847.98 145.6 841.29 115.49 829.66 89.58C818.04 115.49 811.34 145.58 811.34 177.74C811.34 209.9 818.04 239.99 829.66 265.9C841.29 239.99 847.98 209.9 847.98 177.74ZM1079.41 177.74C1079.41 81.23 1019.29 2.74002 945.41 2.74002C906.35 2.74002 871.13 24.74 846.61 59.62C875.655 92.1152 891.71 134.171 891.71 177.755C891.71 221.339 875.655 263.395 846.61 295.89C871.13 330.82 906.35 352.77 945.41 352.77C1019.32 352.77 1079.41 274.26 1079.41 177.77M1649.78 75.64C1649.78 76.0007 1649.92 76.3467 1650.18 76.6017C1650.43 76.8568 1650.78 77 1651.14 77C1651.5 77 1651.85 76.8568 1652.1 76.6017C1652.36 76.3467 1652.5 76.0007 1652.5 75.64V1.39004C1652.5 1.03015 1652.35 0.685723 1652.1 0.431239C1651.84 0.176754 1651.5 0.0326719 1651.14 0.0300545H1124.46C1124.1 0.0326939 1123.76 0.177085 1123.5 0.431849C1123.25 0.686613 1123.11 1.03107 1123.11 1.39004V75.64C1123.11 75.8186 1123.15 75.9954 1123.21 76.1604C1123.28 76.3254 1123.38 76.4754 1123.51 76.6017C1123.63 76.728 1123.78 76.8282 1123.95 76.8965C1124.11 76.9649 1124.29 77 1124.47 77C1124.65 77 1124.83 76.9649 1124.99 76.8965C1125.16 76.8282 1125.31 76.728 1125.43 76.6017C1125.56 76.4754 1125.66 76.3254 1125.73 76.1604C1125.79 75.9954 1125.83 75.8186 1125.83 75.64C1125.86 56.3173 1133.55 37.7944 1147.21 24.1311C1160.87 10.4679 1179.4 2.77912 1198.72 2.75003H1249.66V320.61C1249.62 329.151 1246.19 337.327 1240.14 343.354C1234.09 349.381 1225.9 352.77 1217.36 352.78C1217 352.78 1216.65 352.923 1216.4 353.178C1216.14 353.433 1216 353.779 1216 354.14C1216 354.501 1216.14 354.847 1216.4 355.102C1216.65 355.357 1217 355.5 1217.36 355.5H1325.66C1326.02 355.5 1326.37 355.357 1326.62 355.102C1326.88 354.847 1327.02 354.501 1327.02 354.14C1327.02 353.779 1326.88 353.433 1326.62 353.178C1326.37 352.923 1326.02 352.78 1325.66 352.78C1317.09 352.769 1308.88 349.362 1302.83 343.304C1296.77 337.247 1293.37 329.035 1293.36 320.47V2.75003H1397.62C1406.16 2.76044 1414.34 6.14627 1420.4 12.169C1426.45 18.1918 1429.87 26.3628 1429.92 34.9001V320.63C1429.87 329.167 1426.45 337.338 1420.4 343.361C1414.34 349.384 1406.16 352.77 1397.62 352.78C1397.26 352.78 1396.91 352.923 1396.66 353.178C1396.4 353.433 1396.26 353.779 1396.26 354.14C1396.26 354.501 1396.4 354.847 1396.66 355.102C1396.91 355.357 1397.26 355.5 1397.62 355.5H1651.14C1651.32 355.5 1651.5 355.465 1651.66 355.397C1651.83 355.328 1651.98 355.228 1652.1 355.102C1652.23 354.975 1652.33 354.825 1652.4 354.66C1652.46 354.495 1652.5 354.319 1652.5 354.14V279.89C1652.5 279.529 1652.36 279.183 1652.1 278.928C1651.85 278.673 1651.5 278.53 1651.14 278.53C1650.78 278.53 1650.43 278.673 1650.18 278.928C1649.92 279.183 1649.78 279.529 1649.78 279.89C1649.75 299.213 1642.06 317.736 1628.4 331.399C1614.74 345.062 1596.21 352.751 1576.89 352.78H1473.62V179.13H1541.26C1549.82 179.141 1558.03 182.547 1564.09 188.602C1570.15 194.656 1573.56 202.866 1573.57 211.43C1573.55 211.618 1573.58 211.807 1573.64 211.985C1573.7 212.163 1573.8 212.327 1573.92 212.466C1574.05 212.605 1574.21 212.716 1574.38 212.792C1574.55 212.867 1574.74 212.907 1574.93 212.907C1575.11 212.907 1575.3 212.867 1575.47 212.792C1575.64 212.716 1575.8 212.605 1575.93 212.466C1576.05 212.327 1576.15 212.163 1576.21 211.985C1576.27 211.807 1576.3 211.618 1576.28 211.43V144.1C1576.3 143.912 1576.27 143.723 1576.21 143.545C1576.15 143.367 1576.05 143.203 1575.93 143.064C1575.8 142.925 1575.64 142.814 1575.47 142.738C1575.3 142.663 1575.11 142.624 1574.93 142.624C1574.74 142.624 1574.55 142.663 1574.38 142.738C1574.21 142.814 1574.05 142.925 1573.92 143.064C1573.8 143.203 1573.7 143.367 1573.64 143.545C1573.58 143.723 1573.55 143.912 1573.57 144.1C1573.56 152.666 1570.15 160.878 1564.09 166.935C1558.04 172.992 1549.83 176.399 1541.26 176.41H1473.67V35.05C1473.66 28.149 1471.62 21.4034 1467.8 15.6579C1463.98 9.91232 1458.54 5.42227 1452.18 2.75003H1576.94C1596.26 2.77912 1614.79 10.4679 1628.45 24.1311C1642.11 37.7944 1649.8 56.3173 1649.83 75.64M300.12 383.09C302.12 398.75 295.52 410.47 282.82 418.98C268.68 428.42 252.82 430.77 236.16 429.74C210.89 428.17 189.6 417.64 171.06 400.88C169.82 399.75 168.53 398.61 167.15 397.38C159.03 403.2 151.4 408.93 143.52 414.3C134.4 420.52 124.84 426.19 113.93 428.51C106.886 430.059 99.6232 430.344 92.48 429.35C75.67 426.92 64.5901 418.05 60.1801 414.41C56.5501 411.414 53.227 408.064 50.26 404.41C50.1093 404.218 50.0111 403.99 49.9749 403.749C49.9386 403.507 49.9657 403.261 50.0533 403.033C50.141 402.805 50.2864 402.604 50.4751 402.449C50.6638 402.295 50.8895 402.191 51.13 402.15C51.3761 402.109 51.6286 402.134 51.8621 402.222C52.0955 402.309 52.3017 402.457 52.46 402.65C59.9586 411.959 69.7736 419.132 80.92 423.45C87.5472 425.876 94.5251 427.207 101.58 427.39C106.257 427.507 110.923 426.893 115.41 425.57C134.59 419.98 149.47 407.36 164.56 395.64C154.84 385.81 145.981 375.164 138.08 363.82C136.23 361.03 134.33 358.26 132.36 355.54H1.35999C0.999291 355.54 0.653365 355.397 0.398315 355.142C0.143266 354.887 5.07498e-10 354.541 5.07498e-10 354.18C5.07498e-10 353.819 0.143266 353.473 0.398315 353.218C0.653365 352.963 0.999291 352.82 1.35999 352.82C9.89734 352.81 18.0843 349.424 24.1351 343.401C30.186 337.378 33.6099 329.207 33.66 320.67V34.9001C33.6099 26.3628 30.186 18.1918 24.1351 12.169C18.0843 6.14627 9.89734 2.76044 1.35999 2.75003C1.18186 2.75134 1.00528 2.71742 0.840332 2.65017C0.675386 2.58292 0.525346 2.48367 0.398926 2.35818C0.272506 2.23269 0.172228 2.08342 0.10376 1.91897C0.0352914 1.75453 -4.8865e-06 1.57818 5.07498e-10 1.40005C-9.63307e-06 1.03843 0.142939 0.691418 0.397705 0.434779C0.652471 0.178139 0.998374 0.032694 1.35999 0.0300545H152.17C175.911 0.0591637 198.672 9.50316 215.459 26.2907C232.247 43.0783 241.691 65.8388 241.72 89.58C241.72 119.49 223.45 142.87 221 145.79C199 171.89 169.62 176.04 163.09 176.79C172.945 176.103 182.843 177.231 192.29 180.12C225.72 190.49 256.29 225.12 256.29 265.93C256.264 289.672 246.82 312.434 230.032 329.222C213.244 346.01 190.482 355.454 166.74 355.48H164.05C167.05 359.01 169.97 362.61 172.78 366.15C177.35 371.87 180.78 376.87 183.11 380.37C184.19 379.62 185.36 378.84 186.49 377.99C198.67 368.7 211.13 359.85 225.35 353.85C242.41 346.65 259.7 345.27 276.99 352.85C290.17 358.58 298.26 368.62 300.15 383.12M77.41 176.44H152.22C177.51 176.44 198.07 137.44 198.07 89.61C198.07 41.78 177.51 2.78005 152.22 2.78005H77.41V176.44ZM130.41 352.81C124.65 345.14 118.25 338 110.41 332.43C104.722 328.406 98.4298 325.31 91.77 323.26C116.32 321.69 132.22 329.48 139.01 333.44C147.95 338.67 155.2 345.52 161.68 352.81H166.68C191.97 352.81 212.53 313.81 212.53 265.99C212.53 218.17 191.97 179.16 166.68 179.16H77.35V320.51C77.3438 327.412 75.3003 334.16 71.4756 339.905C67.6509 345.651 62.2152 350.14 55.85 352.81H130.41ZM276.41 355.98C261.65 349.06 246.59 349.26 231.41 354.8C216.78 360.18 204.11 368.91 191.63 377.99C189.28 379.7 187 381.49 184.5 383.38C192.41 395.01 200.09 406.38 211.06 414.9C231.06 430.51 261.06 430.9 281.66 416.06C306.74 397.97 299.16 366.68 276.36 355.98" fill="#FED0BB"/>
</svg>
